<mxfile host="app.diagrams.net" modified="2024-06-13T18:14:43.750Z" agent="Mozilla/5.0 (Windows NT 10.0; Win64; x64) AppleWebKit/537.36 (KHTML, like Gecko) Chrome/125.0.0.0 Safari/537.36" etag="dkUOdy7YaLBcuBB9F9u7" version="24.5.4" type="device">
  <diagram name="Page-1" id="FuFD-UT1IfjwGCVwyfkx">
    <mxGraphModel dx="1050" dy="634" grid="1" gridSize="10" guides="1" tooltips="1" connect="1" arrows="1" fold="1" page="1" pageScale="1" pageWidth="850" pageHeight="1100" math="0" shadow="0">
      <root>
        <mxCell id="0" />
        <mxCell id="1" parent="0" />
        <mxCell id="rIJFQiiRyaywPtjABDCr-22" value="&lt;b&gt;splunknet network&lt;/b&gt;" style="rounded=0;whiteSpace=wrap;html=1;fillColor=#f5f5f5;fontColor=#333333;strokeColor=#666666;labelPosition=center;verticalLabelPosition=bottom;align=center;verticalAlign=top;spacingTop=-23;" parent="1" vertex="1">
          <mxGeometry x="120" y="180" width="690" height="210" as="geometry" />
        </mxCell>
        <mxCell id="rIJFQiiRyaywPtjABDCr-4" value="" style="rounded=0;whiteSpace=wrap;html=1;" parent="1" vertex="1">
          <mxGeometry x="140" y="210" width="240" height="140" as="geometry" />
        </mxCell>
        <mxCell id="rIJFQiiRyaywPtjABDCr-6" value="" style="shape=image;html=1;verticalAlign=top;verticalLabelPosition=bottom;labelBackgroundColor=#ffffff;imageAspect=0;aspect=fixed;image=https://cdn1.iconfinder.com/data/icons/unicons-line-vol-3/24/docker-128.png" parent="1" vertex="1">
          <mxGeometry x="350" y="210" width="30" height="30" as="geometry" />
        </mxCell>
        <mxCell id="rIJFQiiRyaywPtjABDCr-9" style="edgeStyle=orthogonalEdgeStyle;rounded=0;orthogonalLoop=1;jettySize=auto;html=1;entryX=0;entryY=0.5;entryDx=0;entryDy=0;" parent="1" source="rIJFQiiRyaywPtjABDCr-7" target="rIJFQiiRyaywPtjABDCr-8" edge="1">
          <mxGeometry relative="1" as="geometry" />
        </mxCell>
        <mxCell id="rIJFQiiRyaywPtjABDCr-10" value="logs" style="edgeLabel;html=1;align=center;verticalAlign=middle;resizable=0;points=[];fontStyle=1" parent="rIJFQiiRyaywPtjABDCr-9" vertex="1" connectable="0">
          <mxGeometry x="-0.1179" y="-2" relative="1" as="geometry">
            <mxPoint as="offset" />
          </mxGeometry>
        </mxCell>
        <mxCell id="rIJFQiiRyaywPtjABDCr-7" value="Logger" style="outlineConnect=0;dashed=0;verticalLabelPosition=top;verticalAlign=bottom;align=center;html=1;shape=mxgraph.aws3.flow_logs;fillColor=#69a0f5;gradientColor=none;labelPosition=center;" parent="1" vertex="1">
          <mxGeometry x="160" y="263" width="60" height="52" as="geometry" />
        </mxCell>
        <mxCell id="rIJFQiiRyaywPtjABDCr-8" value="/var/log/random.log" style="image;aspect=fixed;perimeter=ellipsePerimeter;html=1;align=center;shadow=0;dashed=0;spacingTop=-6;image=img/lib/active_directory/folder.svg;" parent="1" vertex="1">
          <mxGeometry x="298.9" y="266" width="33.58" height="46" as="geometry" />
        </mxCell>
        <mxCell id="rIJFQiiRyaywPtjABDCr-11" value="" style="rounded=0;whiteSpace=wrap;html=1;" parent="1" vertex="1">
          <mxGeometry x="430" y="210" width="150" height="140" as="geometry" />
        </mxCell>
        <mxCell id="rIJFQiiRyaywPtjABDCr-12" value="" style="shape=image;html=1;verticalAlign=top;verticalLabelPosition=bottom;labelBackgroundColor=#ffffff;imageAspect=0;aspect=fixed;image=https://cdn1.iconfinder.com/data/icons/unicons-line-vol-3/24/docker-128.png" parent="1" vertex="1">
          <mxGeometry x="550" y="210" width="30" height="30" as="geometry" />
        </mxCell>
        <mxCell id="rIJFQiiRyaywPtjABDCr-1" value="Universal Forwarder" style="html=1;verticalLabelPosition=top;align=center;labelBackgroundColor=#ffffff;verticalAlign=bottom;strokeWidth=2;strokeColor=#0080F0;shadow=0;dashed=0;shape=mxgraph.ios7.icons.forward;labelPosition=center;" parent="1" vertex="1">
          <mxGeometry x="480" y="259.5" width="60" height="57" as="geometry" />
        </mxCell>
        <mxCell id="rIJFQiiRyaywPtjABDCr-14" value="" style="shape=image;imageAspect=0;aspect=fixed;verticalLabelPosition=bottom;verticalAlign=top;image=data:image/png,iVBORw0KGgoAAAANSUhEUgAAAtAAAADHCAYAAAAwG2SWAAA2E0lEQVR42u2deZRU1bXGfz0AAooozkPczjHOiUOrOBtjTEWTaOKUPBMVZ+MzJq0mJtGYxFjGxCHOs0aM89TOiiNaKCIOKCjKUVBRQBAZG+h+f+zDoyXQdDdVt+6t+n5r9TJxtX2rzj333O/ss/e3axBCdAoz+ybwNLBciS7xOPCdEEKrRluIql9vaoBHgW8ndMmhwO4hhGkafSEWT62GQAghhBBCCAloIYQQQgghJKCFEEIIIYSQgBZCCCGEEEICWgghhBBCCAloIYQQQgghJKA1BEIIIYQQQkhACyGEEEIIIQEthBBCCCGEBLQQQgghhBAS0EIIIYQQQkhACyGEEEIIIQGtIRBCCCGEEEICWgghhBBCCAloIYQQQgghJKCFEEIIIYSQgBZCCCGEEEICWgghhBBCCAloDYEQQgghhBAS0EIIIYQQQkhACyGEEEIIIQEthBBCCCGEBLQQQgghhBAS0EIIIYQQQkhAawiEEEIIIYSQgBZCCCGEEEICWgghhBBCCAloIYQQQgghJKCFEEIIIYSQgBZCCCGEEEICWkMghBBCCCGEBLQQQgghhBAS0EIIIYQQQkhACyGEEEIIIQEthBBCCCGEBLQQQgghhBAS0BoCIYQQQgghOk69hkAIIYQQorw0NjXsBvQHngeG5HOFmRoVCWghhBBCCLF49gJ+B0wAHmtsahgMDALez+cKczQ8EtBCCCGEEGLRrAwcBhwYxfSQxqaGJmAIMDKfK7RqiCSgRYYxs+4LzaF14s+SaAZeA+YfT7UCs0MILRpVIYQQAoAewFrx5/vAJOCuxqaGu4HXgS/yucJcDZMEtEi/YO4BLAdsAGyEHzdt3OZX1gLW6MCfmgOMbCOg5wH3mNmnwPS4y/4SmBpC0E5bCCFEtdMdWB04ETgGeBt4orGp4RmgAHwuMS0BLdIlmrsBq+CFDTsCe+DHS6suxZ/tBmy+0L/bIf6zGRgDfARcZ2ZPA5+FEJT/JYQQQvg7dIv4cxzwLnBPY1PDncCH+VxhqoZIAlqUTzjXAZvgeVj74akZvRPaZW8cfxqAD4D7zewO4L0QwhTdHSGqZh1aMW7YiZv2b9N5+9XpwGP4qRbA2BDCDI2uqBB6RiG9KXAk8EpjU8Nzcc6/l88VNNerRUCb2XrA8p34T0aHEL7MyMugJ57+UOpxnxRC+LCLn5EonH8BHBCFc12ZhqxX/CwbAUcAr5jZlcATIYRpenw7dD+7ARviuXRdZQ7wbghhdoWOUT/gawlcakYcx5YSfY8+wPoJDduHIYRJJfgOa+EnXt8D1ozr5aZtNtcrduHPzgP+N/6zBXjRzMYCDwBvhhA+00qRmWe1Z1zPxmTlvZ8gdSzIl94X+DUwuLGp4Xng9nyu8LGGKOMC2sxq4o3eGFgpLo57tfmVLdpEHJZEK/CqmU1e6N8/ALyPpwOMwHNt56WgSG1d4D6gX4mvczOeJ9XZ+7Jh3MEeFB/CuhQtDCsD+wA7A8+Z2eXAkyGE6XqM22Vl4BZgvaX4G7Pj5mVJnqSFEEI+g2O0D3BZAtcZFoVhqSJCDcAdCY3Z8XFeFeN9sBqwNe44sB2wdtw81xd5/ZjPAfHdcRQwysxejuM2HJisuotUi+ff4ikLb5rZ4PmbIGBaCEGDtIBu8bk6AC8+/EVjU8NLwF1xHZqUzxXmaZgyIKDjItkrCsjt403dOgrJ2qUUarst4t/tFyMNc+LDNQt41MzeAl4BJoQQZpVhvGvxIrw+Jb5Oz07enz7xxf4HPNqb5g6VvaPg2RXPkb4CGKUc6Xbn3LJFmHP7dHBDm9WXTZ+E5m5NidfzPgmO2dK8E2rxgqgfAsfGgEpdicenLTXxufgW8E3iCRdwpZk9DEyUK1CqxHMNXodzbNQNu8Zgysl405ErzOxZvPBchXRfpTsemNwc+DlefDiksanhXmAoMCGfK2iup01Am1l9nOy74JHNTfHIZqmpiz/dYkSD+BlagNFAwcweAwYD48skptOyKG2BR5MOZ+mO+ZOmJ3AC8IP40rsiboz0VAuR3jWnFo8w/wBPE9s8BRv2migydgC2iUL6WjN7ML4fFJEu/5zZGbgYP7VuGxzoDXwnvt9HAXfHepmPlOKxyHleH5+5zeM7/xXgzsamhmfxfOnPNUxlFtCxAG0j4OC4UK5PMgVoS6I2fq75n20sMMjMXgAeDCFMqKJFqQewLXBpFNFZZU38WG834CTgrQSuOR4I/LeTiBBi8Zv1r+Gnjz8FNmMpo9glohueCrM1HpVuNLOXKzX/PyPzpj9wBfD1dn61J7BVfJcdCQw1s+uBZyWklzjXG4BPgJGNTQ0P4Z0Px+RzhckaooQFtJmtjB+r/DgK57qUfvfu8fOtHxf0l83sGeAe4I1KPgYys2Xwoppf4seoWWcZYHfgBjO7FLg1hNBcqouFED42s/ckoIXo0HrTE7fAzEfh3D0DH7sHHpG+HbjYzC6s1pPKMrMjcOUSxHNbalnQ0GtP4CkzuxovFh2r4Vwsq8efXYHPgOGNTQ3X4vnSY9T5sMQC2sx648WAJ0QxkyWLvJ74EVB/PEfovvjQvVFpx3cx8nwKcAaej10p1OAR9X8Cy5vZFaUU0UKIDm/WG/HToX4Z/Aqr4ydc3c3smhCCnAySmzvbA1d3QjwvTF88x35P4AMzuxkYGEL4SKPb7gZkNbzmpT8emX6+sanhLuD1fK6gTUgxBXQ8YlkBOBs/8uqV8cmzNp4TfABwl5ldBYzMepFavE8GDMAjz70rdE6vAJwD1MV7N1150UKUZb3ZKr4X9sz4e2E54PfA3mZ2DPCW8qJLPn92AK7FbUyXlj74aeFfgSPM7EbgVjy/Xak5i2dZ3JlrQ+AQ4MPGpoahwPV458MZ1V58WL+Uk7wWj9z+GS/W61Yh4zK/QvxE4Ce4O8WVGV6MwI9Or8WjtJVOnzgn98Cj7aO1FgqR2HrTE7fOOiOK6Ep5V+4EXISnJyo/tHTzZ0Xg1CKJ54Xv4deBc3ELw2FmdhnwXAhBlm7tswwL6sf2x+2B72psaigAbwBfVKOYrl2KSb4ccDRweVxYulXoGPVmQQerrLIpcE2ViOf59AJyuEPH+gghkhA/PfATrhsqSDy3ZUfgpLhJEMWfP/2Av+BWtKVk/bgRuoxknMEqTRNtB5yH14w1AWc0NjXs1NjUsEw1DUR9Fyd5L+B3eCFajwofoyHAoxlekL4BXMUCO79qYzfgdDM7QTnRQiQins+kk170GaIncBowz8wuUGFhUefPClE8/4JkAnItuJXtJxr9LrNi3FTuiBcfPtDY1PAC8AzwYT5XqOj+DPVdmOQ9o3g+uQrE82fAv0rRsjZB8XwlXk1erdTiHc5GmNllEtFClGStWQ2vgTkNz52sZHoBvwJeAJ7S3S/K/FkuiucjSO40+yngL3onFI1VcAvBQ+OmZHBjU8OjwEvA6Ep08qjv5CTvzYLIc6WH6lvx9q73Z1E0mtlmbcRzTYnGp23eWJJdxDpLX+AsoMbMLtWCKUTRhA94XulleCpf9yr56isAF5jZUSGEYZoJSzWH+rAgLzkJ8dwKPA0MCKowLwU9gfXiz4F4IPLO6OQxAphWKfnS9Z2Y5LW4g8MpVSCeAT4ErshoccF8C5r1iyRqZwGzcU/IKfHfTQLuAmbG+XAgC2yq+uKNCHqQnqPc5ePG73kzG6oqeiGKIp43wesrSrVRTys1cY072cyOCyHM0Izo0hxaAXfHOJLkIs/v4C3Bx+gOJCKm14m68TjgTeDxxqaGp6KemJrPFTJbwFnfwUlei+eSHlcl4nkO7rwxIqOff7Ui/I0WYBzwLPAw3uFvdAhh2mJ+/9E286U3bn2zCbAv7tSyFuVv2fs1vKPVwcC7WtuEWCo2Aa7DO5lVK/sCu5nZIyGEFk2JTonnuqgpkhTPn0bB/r6Cz4lSi6c+bRd/TgFG4pHpu4GP8rnCtIoU0FGQnYtbmFQDQ4GHqzhKORaPLt+MN5PpVCFACGE6MBwYbmZ34h6cP8W9tdemvJGqbwLHmtmZIYSZWteE6BIbR+HTUOXjsBLudf16DDiIjovn7+Gn2kmK59PwZipp7TT8JZ4aWVfhU6BXfBdvhbu5vdTY1PAM3kb8g3yukIl3c30HJnotbge2dRk/5zg8AtoRN4ydotCvA9al8xHzT4E/AhOrcF37BLgTt6B6sxi5wlF8DzOzN4GBuPXNjpT3JOMY4Ak8si6E6DwnUPnFgh1lS2C/2P1UUeiOaYp9gYvx4/0kmIB3xEyzeAa4JYro7wJb4KemlUwt3uDN8K6RnwLPRCePu/O5wvhMC2g8engm5fF5/hj4D3ATEIAvlnTsErvPLRM/7/Z4xPOHcTIuqZXs7Cgen6vC6PMIvAPjkFJ0ZwohNJvZUOAgvK1vYxlFdG88Cv2McheF6BLLlejvzsCPdufnRQ4Hnl/odzYFdm/zLH+d8qaHdcOj8XcD4zU12n0/A+xNsv7LrfiJatrFM/lcYRxwWWNTw7+jdtkZ+EHcpK1W4dOjW5wTh+E1VT+PQvpevI3451kU0MfFG5kks/Hcun8B73Rm0scc3fm5NPfGlrLX4Pl6x+MG7f0Ws+C+BlxSZd6es+L4zB/rkm0c4uZnopmdF+/RsfgpQTlSOr4DnGJmf1VBoRCJ0xrX+cl4YdFw/Ph2elyH56/5cxc+CTOzeha4fSyHHwUfBHwriun6MnyfrYD9zewqrSeLFc+1UTxfnaB4bokC7I9pF88LCempwIjGpoa38KDeBnF+HxTn+4pUbvM6cAOCbeN3PjqOxRD8hPx1YHIabPHqlzDh+5F8A47ZcXf6+5hLu7SirRV3ihhmZkfjRWQD8LSU1doI6anxwf6oysTzxcDZSUZiQwgzzOx84Ek8z/obZXpAf4pbFb6j15sQia3vE/D0qYH4ke1IoLWjRV1RCM0XQzPM7GHgEWBVvLvcUfjJaZIb81rgEOB6QDaZ/60l6vC0jSQjz/PwTnkn4FZqmSOKxFnAm41NDW/G9+UmuOvNvlGfrUTl9uSoxZ08tok/R+PN7QbG6PQY3MkjfQIaPzbYJMHP0xwF7h+KIZ4XsfC2AEPN7DU86vpzvK/76sSiuSqqzG0GLk1aPLe5F8RNzeXA3/Cj2KTZADjYzP6SUbtCIbIknF+LAvMp3AWhKF3K4lrSiqdPXGJmg3DLykPxYqWk2CIKmud1u/+LDYHzSbZt9kPAySGEzyphAKNIbMHTLUc0NjXchHst74XXfu0CrExlR6a74Ra9/VlQG3d/LEAcm88VvkiTgP5Rwjubf+NHLSW1M4kL98tm9jpwI27Rd38pcn9T/DK7rFzieSGuxn2jf0vyntH1uKXdf1AUWohS8XZcb+4OIXycwOZ8hJmdFF+wp5NcrUVf/FRLAroNZrYGbgu7foKX/RC4OIn5VkZB3Yyf3oxsbGq4Di/E2xPYFY/Wrk35rWNLyVrxZy88c2BYY1PD9cCrUUyXPMWjfgmTfkeSOwYbD1wZQkhsBxEF80vxp5p4BTgvhPBluT9ICGG2mf0D7+z1qzJ8hI2AH5vZeVnKkesEzXieqRDlmHu34vUVrySZGxxCmGVmf8fdmH6TkIiuAXYws7VCCLK0cx2xKnABXhSWVG76OPwEomrarOdzhRl4NPatxqaGG4A1WVCAuDnJ17ElSW38fmvjxcXjgKcbmxruA0bkc4WSpeW2N6H7kayFyj34EZ8oLW8Cp5KinLCYE30lfiyTdM59HfAz4DZgdAXe74m4Zd+2mvoiQWbhp0t/CCFMKdO6Mj0WLLeSnOvP2nhOatULaDNbGbgEP8lOytf4Y9ws4MFqtRTM5wpf4lHpkXidwTq4X/uPcDviValcn+k+eE3VJsD/AGNi8eFNeKC0uZiR6fYEdDeSLcIIVZRCUS6m4dGgISmsFH8H+AdwLcnnQ28E7GJm71VaBX0IocXMVNQkkuT9KFgfK/cpVxTRl+LRuN0SeKcthxd3Da9y8bxKfNccQHJpBBPwIrOH5ITy/znT0/Go9Nt4AeKGuLPFj+M/+1GZBYg1uE/95sBm+AnI68AdjU0NL+HR+hn5XGGpNlntCeh9o5pPgi/joitKRytwO3BjGheXEAJm9hjwOG41WJvww3YQbpEzVVNFiC4zBhgQQhiUorXlMzM7HfdpXrPEl6sH1qhy8bwG8M+ExfNcPNr6iMTzIsV0KzCHBWkeA/HAUX88b3pHPDLdvULFdF+8yHIXYBJ+En9/Y1PDc7jH9OyuPuyLox/J5SzNjTslUdrd+bVp9rgOIUw2s7Nw95d1E778Lvjx1jOaKkJ0iWbgHNKZezo8PtuH6jaVVDzX442ykhTPc3AzgHPkptRhQT0PL+59O7p5fA3YB7fH649b/Faqm0c/vNByV7z78j3REu854JN8rtBhd6D6lHyhFfBQu1orl4ZW3Cd1aAY+6wg8H/5kks3TWgbYJ3Yn1IwRovPi+Urg3pSecDWb2eN4Hugyul0lE88H4/awSa3d88Xzb0MIk3QXuiSmZwPvAu9GN4+18XSnvfCmLUZ5mp0lwep4zvzPgbF4G/EncKOFsKQUj/oUfZGVzKxbsbxBxVeYgjucpD4XNoQw18xuxHOWvpbw5XfF86amacoI0SnuxC1I0+z48loU+hLQxRfPdXga3N/xVIAkmBvF8xkhhIm6C0UR09NZYI33bzwdaee48dyCZH28k6QXsHH8ORSPTN/R2NRwJzAynyvMTLuA/i5eRDZe07joPAi8nKHP+ybwYhkE9Bb4SciLmjKiBGwU51ehwr7X28CFKRfPAO/hHrG7aioWXTwfAlyIH48nxTu4HavEc2nE9DTgncamhndZ4OaxDR7c2gZYhcpM81gWL7Y8De9iOTxGpZ8E3qBN8WGaBPT6wOFmdkGF+vGWi7l4o5DMRPajc8StwPdJtpNYz7g4SECLUrA8sGKFfadm4KosbNBDCFPNTMf8xRfPhwIX4amYSYrno6lM69G0CelWYCYLrPFuwSO12+KdnLfDOyBW2slOXVyzd8VrpE7DizBva2xquAf4rD0BPQNvG5lUIUDPqPYHmdnLykMtGq8CQzM4nk/itjMNCV6z1t8JSiUSooO8Bdyu9boqxXM9Hnm+IGHxPBp3ehmsu5C4mAavqZqf5vEfvJ34rnjx4a54AWKluXnMt8XbDo++HwcMb09AP4gnV/dN8EOuDVwBHEmV+2gWkdtwB46sMR1vANKQ8HW3iwvCKE0dIdplLnBDJbdLFu2yKfAnPPqYFO9E8fKchj8VgnpOfFeOauPmsVcU0zvgOdP1Ffa1a4ENgA3aiy5/CZTDEmZr4Coz21LTc6kZDzyfxY5MsZL/SfwkJEmWwytzhRDtMwr3lhdVhpmtC/yVZFtEz8bzrJ+W13MqxfSsfK7wTj5XuAwYAHwHOAZ31RpTid+5vZ3BdGAyyRYFgIfKtwGuMbOjgVd1PNhlPgeyPHjD40t66wSv2Qf4HvC0po8Q7XINKvpeFP3MrGcIYWYFCmdwW7PLgW+TXIrnbLwt+C3V2qI7Y2J6On5a8E5jU8NtuJvHjixoJ74GFdBOvL3JPwZ4vkyfqwZvM3ktsI2Z1WhKdonH4iYoq8zCK+eTnnu9zKxW00eIxTIFeFGRwEWyE6XveFhO8XwtsHeC4nkmHnk+O4SgTrEZFNP5XOFd4Ca8SH8v4Kd4Z9Bx8T1fWQI6Lox3xZ1fuUT01niU41Az66mp2Cnm+W1Mv/dzO3NwFvBQGS69SyW+AIUoIq/jlk5i0e/VSgz6WHwf75Hg95vVRjzLnz/bQro1nyvMiWke/2kjpo8BbsVPyzMlppeU3P0a8AHuX1outgSuBtaJFnezNRU7xKeks6VuZ3kPmAislOA1+wI9NIWEWCz3kuHIkeikcjZbGbg0iuckeQb4SyWmw0hQF1pZUID4H7wAcXf8BGd3MuDm0a6ADiGMNbOhZRbQ4BZ3ZwBrmdklIYS3Nf2WyESgEjxPRwKfJSygu+H+j0KIRTNZuahVI56740fuSUaewU85fo/XY4nKFtPNuD3h6NgBcS28nfjuwPZ4E5fU5Ux3xF7ketwsu3eZP+uyeKh/UzM7JoQwUtOuXZ6mMgp85sTNQJKsjB8tvaJpJISoYvHcDW9Y8nuSbZTxerzuUJkIVJ2Yngm8C7zb2NQwEI9E7wgcgGckWFo+a0eKAAYDj+Dm2Wn4vDsDd5nZMXFnLBbN7BDCvAr4HlPi/Et6nimFQwhRzeK5B94L4s8k1yilFW/+dSTwkopUq15MT8/nCu8BNwMH484vh+IFiB/gnVDLRkci0DPxFoabAN9IwZjWxM9xAbC6mV0fQvhAU+0rzKJCfBdDCK1mpq6AQqSHLwA1T6lsuuNevueQ7OnzZ8AvUeRZfFVIz9c1oxubGkbjDeLWw40mDsTTPFbB033TI6BDCJhZwE3Tzyc9TSZ6A38AdjKzk4F3QghzNdUAmIoXX4ius7GZ9Q4hKP9OiK8yDo8SisoVz8fhdUdJiucvgX8CL0s8iyWI6RYW5EzfHcX0jnjO9M64z3TJU4461GIxhDDPzG4DNo4PVVpaM9bghQ33Aueb2Z0hhMmaYhXHCDyVo2+C19wWLySUgBZCVFXwAPgdyUbzZuBBugvltCU6KajnsSBn+la8AHFP3M1jl/j/u5VNQEcRPdfMrgA2BH5Meioia+Nn+gewl5n9KoTwUZXPqalUlsXUW3hDmL5aLoQQoqQkXf8xU+JZFElMNwPvA+83NjXcgkei++ONf7YF1qeITjKdiiSHED42s/+NH+DHJNeJqCMsi1dprmVm5wEPVHEBwot4gr0QQgiRZi4H/hEbZwlRLDE9gwVpHrcDqwI74DnTW+HWeEulYTv9H4cQPgVOBO7A81DSRB2eB3M1cKSZ9avSuTOnQhw4hBBCVCatwHPAlWqUIkotpvO5whhgIHAQHpE+CS+ITk5ARxE9MV78diCNhXurAFcAF5rZOmZWpykkhBBCpIYhwIAQwjsaCpEQPXBf6d2An7GURbJdLgYMIUwws1PwKPRPSE9h4XzqcN/AzYAzzexhdc4SQgghUsHnwKcaBlFqGpsaukcteDiwD56+sdS5/kuV/xFCGA/8mvRGouvxXJdLgN+amdozCyGEEOWnP/BDM6vXUIgSCecVG5saDgP+hbu1nQRsRJEKZZd64oYQPjGzU/FK2gNIp1PCurhn9Bpmdn4IYUwFz5kWYIIeHSGEECmmD3Au3pTnUQ2HKJJoBndm2xZvBrQtJfIzL8rOL4Qw3sxOAB4DLgVWSuG4dgOOBnYxs2OBwRXq0jEz7rSEEEKINLMq0Ghmo1xKBI2I6Iporokab33gCLxQcBVKbMlYNBu66N94ZxSpLwJpdIGoAzYFrgX2MLMeFTiXWklnOo0QQohskKSl3B7ANXhxlxCdEc40NjWsgFvT3QM8DpwKrE0CfuZF9XEOIbSEEO6J6v+BlIpo8ByYfwNnmVkfTUMhhBDi/7kET61Iit2B/zGzbhp60QHhXN/Y1LA6bmBxB3AjsC+wJkVslLIkSpK8H0IYa2Yn4x3kjiadKR2rAacA9WZ2dghhmqalEEIIwWCgGTcJSOKkthY4A3fluFHDLxYjnOvwVvOHAPsD61Gi/OaOTtqSEEL4EDgLOA3vU55GeuBVmVeY2dYVMsd64NXNQgghRFeYB5wP3JzgNfsCJ5rZJhp+sZBw7t3Y1JDDu1beGzdbm5dTPEOJvZtDCHPM7CbgBeCqKOxqUnZvegCHApuY2QBgWMYLGbrFiVVJNOAFAUkyAY/AVAIT43fprqVYCNHB9/cXZnYpsB2wRUKX/SZwpZkdHUIYqbtQ1aK5BvgabkV8BN78JFUpt7UJPIRzgZF4yP33LGXrxBJRA2wNXAdsZ2Y1mr6pYu0y7DSfACZVyPg9EUW0EEJ0hteAE4HxCWqS/sBxZtZLw1+VwrmusalhfeDM+O66HdgvbeI5EQEdRTQhhI/wI6FTgVdxt4i0iegt8Wrg7SWiq555FWRzOC+Fz5sQIuXENfAl3J52doLv4gHAKWqyUlXCednGpoa9o3B+HPgTsAEpPjmtT/hhbAauNbMCnnv8MyBtu8zN8XSTg4C3Na2FEEJUsYiebWbX4nZzu5FMGmZP4FjgCTMbIn/oihXNtbihw5Z4msa3gcx0jK4t0wM5AnfAOBf4JIXjsjlwgpn1zui8XK5SPK7NbFlgm4Qv+wUwXMubEEJ4x2HgeGBUgpddC7gCz4sWlSee1wEagQeBgbiX8/JZ+g71ZXwgZ5rZ+cAzwJ/xQrE0heqPAqZHi7sZGZubOwDrAO9UwHPWi+SLIr/ELRiFEKKzdAdWrMDvNRK4CPg7ydWkbAn8zsx+GkKYqamVedHcPWq9HwO7Al/HjQ+yyMTacl49di98HvghcDEwPUWD0wM4Btgtg/nQ3cu5OSoy/Ui+gLAF5QwLIbrGSvhRdFZpjWvgwu9r8EL78xNcH2vwBhl/VFFhZkVzbWNTw+rRhu4mvGPgCXhgLGvieS6eNXEJ8N2yi6xYpPC5mZ2FR6P/jhtlp4HlgTweyR2doZtcS+VYlm2PR9OT5DngIy19Qoguir4sBzBGsZgUthBCs5ldD+wM7JnQ51kGLyp81sweCSG0aIplQzgDawA/wIORmwB1Gf06s4BhwNV4Ue3IfK7QkpqHPIQwHWgysynAZaQntL8RcJCZ/S2EMC8jN7svsA8Zz+ONkf9lE75sCzA2hDBLS6AQogqZBkxt5139oZn9E9gULwBLghWBC4HjzWyQRHSqhXMvvG6pP56qsXlGhXMr3s5+UPx5IJ8rfMXaNo275MFxx9KIV2WWW0R3wz2sbye9HRUXpp7KyMHrGedCkkzFixqEEEIsmkdxu7ELSS7IsSHw1/hO+Fi3IHXCeVU84Hgknnazcka/SjMwLs7xG4DX8rnC7MUJrVQRUzreN7Pf4b6Th+I5ZeVkY+BAMzs/NobJAlubWb8QQpabgSwHrJ7wNVtIZ7MfIYRIy3t6rpndDeyFRxmTijBuBZxtZr8JIUzRnUiNcN4f+Hnc5KyU0a8yBz+1vwF4BPg4nyu0exJdn+IHdJKZnY53ovkX3tKxXNQDB+D+0FkRpBvinXuyLKC3jjvaJHkNGKtlUQgh2n1HTzazvwI7Jvh+7haF2tNmdov8ocsmmuviZuZwvE5pCzxXPYtMAR4A7gUKwPh8rtChFKH6lD+gM82sCU/gvqbMInrjOFEeysikWBW3iRmTxRkd8583THiOtgAvKrIhhBAd4k3cUeE6kjuyrwfOAyarqDBR0VyDu2JtDfwEjzqvRDKNdYrNHNyWcWjUlkPzuUJzVyZi2ne5rcDjZjYAr4Asl4heFuhvZo9lJI1jGWAnM7sto/6Z3XFj9SSZDtytpVIIITr2fjazh4BbgBMT1BRr4ifT3wdG6E6UXDiviuc1H4UXCGbVu3kK8B5wI3BHPlcYv7Q7uazwBHAccClgZfoMe+JNX7KSB71bnPghgxP9GyTfQOV11L69qjCzbnhERQjRNRHdYmbnxHfNIQle+mvAmWZ2aghBRYXFF87dcaeVvYH9gG/h/TGyyOd4UeC1wNv5XKEo86U+Yw/pI3GXewmwbhk+xtpRvGelS906eH5aFgX0miTfQGUcoG5X1UX3+IwIIbr+fv7czC7Go5MbJnTZOvyUstnMTgwhfKk7URThvGK8hwcDP4q6J4tpGvPwgNh9wNPAi/lcoajN+uoz9pDOF9G/jjuJvgl/hNXjZMqKgO4G7Gtmd2fQ1/hHJHtMNB3P41MHwupiY5Jv1CNEJfISfkKcJ7lGXvV4Lu4TZjYwQ70a0iic+wDfw9M0tgRWwJuyZY3pUaPdjqdkfpDPFeaVavJlbac7z8wew1M6DtS0XyLbAqsAH2blA5vZ+sBOCe9638ILCDv6+w/g+Xd1mmLZxMzmPx8razSEWOp3c0vsUrgOflKcVABkeeAfwFgze1rOHJ0SzXV4tPkX+EncNmTTTWNeFM5PA1cALwDTSiWcMyug44M6zcyuwnOSV0j48j3MjAw9pBsC25vZhxn6zIcC6yV8zbviA9hR3kfR6qzTDThIwyBE0d7NU2OXwv5RjCUVBFkJ+B3uOvWB7kS7opmom7aPGupgPGUyi2kac/GiwH/j3s0jgJn5XCGRi9dneB48j3v2fTfh6/4EuD9D41QDHAY0kYH8XjPrC+yQ8Nz8HCjIDqnq2BY/qhRCFE9Ej409HO4i2TTLPYHLzezwEMIE3YlFiue+ePObY/BT3p4Z/SpTgeeAF4GB+VyhLHa99Rl+SGea2ZN4hWiSx+hZPO7dPT4sT2Tgs+4ZoxdJ8hDwspbX6sHMugNHk/wJlhDVwAt4WsUZCYq0GmAP4DAzuyyE0Kzb8P9pGhvhwca9gF1IvkC/GLQAH+HdAq8DnsrnCmXtGlyf8blRwHNflIfaPssBx5jZ4DR7Qsfo8y/i502KScD1IYQZmiZVxbbxhVKjoRCiuIQQZsVUjh2BfRK8dA/g98BnwMAqF869o3A+AG+3vn6GtVLA0zRuA8aWWzhXioAuB59k8DPX4Cbox5jZhWnMhY4FXXvE3XGSPBw3YmLpWd7MeocQpqf5Q5rZasBfUPGgEKVkGvBbYBOSdbpZETjJzF4BRlVTUWFsetIT2Bk4Nv5z+Yxqvdn4ScatwGDg3XyuMCdNH1ACuvPckdHP3Qs4Au/3nsYVZT3gVyQbfZ4AXKPoc9H4JrAB8FqKxfMyeEOmBhR9FqJkhBAwszfwVI4/RSGXFNvjVrdHAO9UgXCui5uUQ/CI/5YJv0uLRQvwMW6JeAvwJDA1nyuksmBfArrzzM3wjvbrwK/M7Iw0RQmjqDkaz9NOilbgQWBIFczZqbiN4Zolvs4yeLQplQLazGrwI+VjyG5HLSGyJKLnmtnlwFrAqSTnK1wT3yfHmNnvKzVI0tjUsCzen+InwJGUp8FcMZgBjMebnlyTzxUy0WujVo94p2jGjxWySjfcIm4vM0vFvY/FXL8ETkr40hOBazPYYKYrL7FPgWEJXKoncJSZrZhS8bwT3sV0VS1lQiS2/swBrgQewyOMSXIccHx8/itJOC/X2NSwD15M9whwTkbF8wxgEJ5usjfwm6yIZ+hABNrMlo87mwnAwyGEiSn6/DuRbFL828DrGX/2+uFHas1m9mgKrNt2xCu1eyV4zVbgUfyYSBSXBuA7eN5amlgez3v+hm6REImL6PfM7Exgc0p/Erbwpv44PBXg1QoQzuvgXXp3pDx9MIrFJ8A9eI7zI/lcYVIWv0T9EsRz77izORaYAzxuZucAw8vdMtPMeuL2bEkK6NlAJUQs1wPOBobGjVG57uEWwN9INjcOYBTwJ9kclYTewLFm9lII4b00fCAz6wX8MYp7IUR5eC1uYi8iuS6F4JHZq83sqBDC8AyK5u64m8bewOF4mly3DN7/uXg++tPADcDr+Vwhyyf6ixfQ8cjj23j0uVv8+T6enP8nM7s9hFDOXcMuZXghPkS2Uzja8k3gAjP7X2ByCCGxJP04t7YEriLZblXg0eergNFV9vL6OC5gSdQ99MdTOc4KIZTteYnzbHvgTNz/tLs0jBDlIeZD3xaF4P4Jrvs18X33azM7NoQwLQOiuQavKdkOr9mYH23OmnBuxYOvr+Itth8BPs/nChURvGrvZboxkOerR+u1wGp4HuHeZnYe8HLS0eiYY3kcyXY5+gJ4odyR9yJSh+dDbxA3RI8lkc4RTw6+i7dd/WYZvvcjwH+S3DCkhIeAX5PMkV8tcCIw0cz+VQ4RHXPrdwAuQ2kbQqSFz4ET8Khwkl1Aa4ADgXFmdnZa+yE0NjXU4kWB++MttrcA+pA9x6AW3Iv7IdyP+1VgclrdNIoqoM2sDvgZi09KrwN+gEcP/25m9wJjExJgK+HHQPsmPFajgFcqbDGriyLj8ngf/1PKU4XotnEKHhEsRwvRj4G/hxA+ofqYCIwluZy5ZXHrqtYoohOJOEQ/8dWA44Gj4stICJECorXd+Lg2XIS7cyRFD9zW7umkAkZdYC88rXELstn0ZDaeqvMscCcwLG3ezSUX0CzItVnSce9awPnxd88ysydLaY9mZv2ieP4FyR5lzMH9n7+o0HlgeGFhfzO7CigUc4ceo4GbAf8TRU05xPMXwGnAM1X64hpnZi/iRTxJRTN6AWfFOXBTqQuQzWxlPM3siLi5l1WdEOlbi1rM7D68FuevCb/LV47C/TgzeyqFJ5G7AFtn8LZOBN4HbgbuzOcK46thLtcv4iW0Fm4r1tFK2W7xhl8PPBYF2IvFtgeLbZ7/FsV60nlAbwN3VVD6xqLojh8Z7QU8ZGY3AG+HEMYvxT2rx08x9sWbpKxNeY6i5uIVv/dX+D1cEv/G/UKTrNxeDi9E3sPMzgJei7ZWxVoX5s+x/sDP8RbdPRGlZDU8LeYZDYXoooieZ2Y34U5aP0j48hvFNen7eEqJ6DqT8DSN64ERwIRKS9PosICOL6Of4cWDnWXFKMC+DQw2s0HA7bg5dmtXmo/E49hewG74kex3SL75yxy8I84HVTInVopzYH/g3Ri1vCfex5Hxd/7rfsZ7NV8cb4B77R4M5IBVyixqngJOCyFMrfLF7iXchnHXhK/bC8973wp4wMyuxp18WrqwHtTEv7cJsD5wAF5oU+45Vk30i5sWCWixNCL6MzO7CM+FTtrDeDvgL2b2mywUFaaQt6NoLgCv5HOFquzmW7/Qy2kP4DcsXe5NP2A/POo4APgIuMfMRuO5MW1TPGYvHBGM+dc9gDXwY9jD8ejSsmUao7eA21KaL1UqanBruW2Ab8X7OAV4A6+qfcnMBi/032wdNzpEcbMyHtUud8OWD4C/hRA+05rHHNyfeecy3Jda/FTraNzH9D4zuxsYhx/9LY6NWdD4ZP4c643nCPZAzhpCZJlngJPx07E+CWufI4HPY6fCFt2KdmnF0yBfBR7Ag6Of5HOFqh63ttHcNXFnhBWK+Lc3jT9748foI4H5ubUtwP1mNm6h/26tKMBXw3u7l5PpeLe6rEWfR+MVsNuz9IUI8+10Vos/xPuZBT4AjgohDNL6ByGE1ph7eDTlcUCZL6RXiZuyAfjJxth2fn9d/FRECFGZa9KTuC/wiQlv7LvhdTlDzOzBKk/vWxxz8DSXQbj964tZ924uuoCORV4/xyO9pbzWZgv9u+1TvuN6CLg6g/f1WTzH62L8JKCuCuf2GDzt50k95l/hM+BavJgwDZ6ibTdm5WAafsq0naaGEGUR0TPM7GK8MdrmCV9+LeA83GVrlO7GV4TzO/iJ5X3Ae/lcYaaG5avUthGyp1D+4/Y0MRQ4p9jFkAkuSgEvBn0Yj/ZXE+/HaMZjVej3vKR50QLcj6dTVTszcFef6zQUQpR9zT4etxpNmg2AP5qZLC89TeMevOj/B8C5+VzhTYnnxQjo6LpxDl4EKJwP8fblb2RcLAXctP5RPKJeDYwBTgIeUV7bYvkYb209sYrHYCZuoXURldNdVIisvqtagSF4mkDSQat64MfAYbEGqypvAR5YORQ4PJ8r/CufK4yu9hznJQpoPAeogex1uikV04ALgde74hySwoXpQ7wV6GNVIKLHxI2PxHP7c6IFeBrPO2yuwiGYDvwZ+EdaO5IJUYXr0hzgAtzdIel3VT3QCBxURSJ6Lh75/xPucHZIPld4KJ8rfKnZ2HEBPQUvttJRtx9f/AG4LIQwt4K+11i8YKtS0znm4YWTRwKPSzx36GU1A8+RH15Fz34rbr90hsSzEKlcl6YBlwLDynD5leOauG2FD/M0vL7rINx2+Ox8rvBOtVrRLZWADiFcBhwC3Eb1HmW2xgf2V8ClIYSKGocQAiGEscBxQFMUnJW0i74F95t+SjnPnZoXY4HTgclV8oy/DBwcQrgkq7UNQlTBujQCuAQP7iXNing+9DoVNqzzgPfw6P5hwE/yucLd+VzhfaVpdJ36OGGHmdkAvHDuGGDDKhuHAjAgPriVvDB9aGa/xI/tv4N3icsyY4FrgCvk89xlXsTbuP8Wb1BSqQyLz/jruuUiATYzs+VCCDoO7xq34v7v55Cs13sNbtPaaGanhBCynuI2Hc8wuA8YCLydzxVk11ckatuIq2nAP3E7uxvxFo2VzizgX7hX8IhquOHR03oA8Osy7fCLtZt+A3eO+YvE81LNh1lRQJ/HAo/2SnvGn4tzXuJZJMWWeDMq0bV1qTnqkOfKpIsOAo4ws24ZHcJZeAfeAXFD8MfopiHxXETqF5q0LcALZvYq7hX7v7iVSSXa270JnAvcF0KYXmWL0xQzuw4/1j4Nb4mcFabgBWB3AuNkfl+U+TDTzP6OR19OxxvnVAKz8YLgfwATK6EoWIgqWpc+NbM/4TnJfRK+fD+8HmpUFKJZYTzeJXAQ8DwwKZ8raDIlIaDbvlCB58zsLbzw7Hi8CUq3CvjOH+JHGdcD71ZrzmwIYW4U0c9GQbon0Jf0urF8EefiZcALEs5Fnw8zzOx8PLp/Ot4uO6u04seWVwMXVdsGWYgK4gXg1LgJTiLlsBn4FK8JawJeycAYNePF4INxT/uR+VxhrqZOmQR0m5fqJOAaM7sH+BFwBLAV2YtQzYsv1OeBK0MIL+jWQxSho8zsMNzK8M94R7YeKRJCE+LCcD9wS7Q6EqUV0XPxgtqVyJ69ZTPwIHBuCOFl3VUhMr0mzTWzgXiXwoMoTVfdmXiH1iHAvcDQEMK7KR+aFjyo9Cbunf1APlf4QjMmRQJ6ISF9tZndD+yPt/zeG0/yT7twHoMf998MjJTF2SLvbzPwrJkdDBwIHI6fOHQv00eaE6MAT+CpRC9XmjNKiufCbDO7MG5aLgK2zshHn996diBwcazpEEJUxsb+dNwhY58i/ukJeIrGDfhJ7JgM2Ne2Ah/hRYG34tHmSZolKRbQbSbyp8BVZnYTsA3u5LA33gozTZ0MPwJG4B34HgVGVZivc6kWqo/N7GK8lWcubpT2SfDeTsb9nG/Hj88+kFdvWebBLDyF6wi8k+V+wCop/sifx03y+cD72iQLUXFr0lgzuwTYHFhzKTfar+OnVI8CozNShN4MvBo/9yPAa/lcoVkzI0MCeqEX7PNm9gJuPL5FFNH74NXH6yb8PeYC7wKfAA8Az8Td5BTd4k7fW3B7uMvjRml7YAf85GETYNkiXm5WvG8hLgzv47lcnyvHORVzYXi0Pbwe+EWcAyun6CNOxRsCXAsUFHUWoqJ5FG+CdDmdq9Foje+Zl+LfeAb4KCMb7Ul4MHBg1Daf5HMF9TrIsoBu84JtwY9BngSeNLOb4+5wc9zC5wA88b9vFF/gOZVdue48FnTRGwuMi///XtwgfFh8oU5XM42iCajpwCAzewa3+/tWvL8HACtEMb0pHXNpeQ/PMwO3oBuEd0QahuegTZdLQirnwEzcmecVvChvQNxUfYPS5CO2RwvuazoCP8J8AU/v0SmFEJW/Fs2LaaR7AT9dwnunJb5fBkXxOQT4LCMNlObh+c0PAFfE9W66Gp5UmIBexASfEXd675pZDZ53XBMF9Dfir/WNAqyzkcx78UJAcCeNcfF/z5VgLv3CFR/oQWYGnntVE+/hZp0Q0J/OX9wqIMI8Ic7JUojI11I4B2YDL0Uh3S8+w9/GLRDXx5uwlKLgcCZuR/cKnqf4SHyhzCxiBOkDPG0pCcaX+G8n9T0+yOhzO4RkCmM/obi+6oOjIEyC0fipbhrfRV+Y2bl4euF6ixCeU+Na8RTwOF5kNzNDwZm3cPvgwcCb+VxBRfMppkZDkBxmtll8sFcq8aWuCyEcqREXCczpNfBTiP1wm0vD07gWpjYK77qFxPHCleNz8MjylPj/nwZG4paTsqMTQmsOeBT66rjefBnXjAJ+MjUqBvOEKCn1GgIhRFcJIXwMfIxHezCzvizanac3XnDc1sv1PTzS0pYWYGxGjlqFEMmvOZjZIOBIvH/BcOBx1TwJCWghRJZfblNYfIv4YRohIUQR1pkWPL95kEZDlItaDYEQQgghhBAS0EIIIYQQQkhACyGEEEIIIQEthBBCCCGEBLQQQgghhBAS0EIIIYQQQkhAawiEEEIIIYSQgBZCCCGEEEICWgghhBBCCAloIYQQQgghJKCFEEIIIYSQgBZCCCGEEEICWkMghBBCCCGEBLQQQgghhBAS0EIIIYQQQkhACyGEEEIIIQEthBBCCCGEBLQQQgghhBAS0BoCIYQQQgghJKCFEEIIIYSQgBZCCCGEEEICWgghhBBCCAloIYQQQgghJKCFEEIIIYSQgNYQCCGEEEIIIQEthBBCCCGEBLQQQgghhBAS0EIIIYQQQkhACyGEEEIIIQEthBBCCCGEBLSGQAghhBBCCAloIYQQQgghJKCFEEIIIYSQgBZCCCGEEEICWgghhBBCCAloIYQQQgghJKA1BEIIIYQQQkhACyGEEEIIIQEthBBCCCGEBLQQQgghhBAS0EIIIYQQQkhACyGEEEIIUfXUawgSZTIwEFi2xNd5XkMthBBCCFEa/g9+0bg4kijdDQAAAABJRU5ErkJggg==;" parent="1" vertex="1">
          <mxGeometry x="461.66" y="326" width="86.67" height="24" as="geometry" />
        </mxCell>
        <mxCell id="rIJFQiiRyaywPtjABDCr-15" value="" style="rounded=0;whiteSpace=wrap;html=1;" parent="1" vertex="1">
          <mxGeometry x="630" y="210" width="150" height="140" as="geometry" />
        </mxCell>
        <mxCell id="rIJFQiiRyaywPtjABDCr-16" value="" style="shape=image;html=1;verticalAlign=top;verticalLabelPosition=bottom;labelBackgroundColor=#ffffff;imageAspect=0;aspect=fixed;image=https://cdn1.iconfinder.com/data/icons/unicons-line-vol-3/24/docker-128.png" parent="1" vertex="1">
          <mxGeometry x="750" y="210" width="30" height="30" as="geometry" />
        </mxCell>
        <mxCell id="rIJFQiiRyaywPtjABDCr-17" value="" style="shape=image;imageAspect=0;aspect=fixed;verticalLabelPosition=bottom;verticalAlign=top;image=data:image/png,iVBORw0KGgoAAAANSUhEUgAAAtAAAADHCAYAAAAwG2SWAAA2E0lEQVR42u2deZRU1bXGfz0AAooozkPczjHOiUOrOBtjTEWTaOKUPBMVZ+MzJq0mJtGYxFjGxCHOs0aM89TOiiNaKCIOKCjKUVBRQBAZG+h+f+zDoyXQdDdVt+6t+n5r9TJxtX2rzj333O/ss/e3axBCdAoz+ybwNLBciS7xOPCdEEKrRluIql9vaoBHgW8ndMmhwO4hhGkafSEWT62GQAghhBBCCAloIYQQQgghJKCFEEIIIYSQgBZCCCGEEEICWgghhBBCCAloIYQQQgghJKA1BEIIIYQQQkhACyGEEEIIIQEthBBCCCGEBLQQQgghhBAS0EIIIYQQQkhACyGEEEIIIQGtIRBCCCGEEEICWgghhBBCCAloIYQQQgghJKCFEEIIIYSQgBZCCCGEEEICWgghhBBCCAloDYEQQgghhBAS0EIIIYQQQkhACyGEEEIIIQEthBBCCCGEBLQQQgghhBAS0EIIIYQQQkhAawiEEEIIIYSQgBZCCCGEEEICWgghhBBCCAloIYQQQgghJKCFEEIIIYSQgBZCCCGEEEICWkMghBBCCCGEBLQQQgghhBAS0EIIIYQQQkhACyGEEEIIIQEthBBCCCGEBLQQQgghhBAS0BoCIYQQQgghOk69hkAIIYQQorw0NjXsBvQHngeG5HOFmRoVCWghhBBCCLF49gJ+B0wAHmtsahgMDALez+cKczQ8EtBCCCGEEGLRrAwcBhwYxfSQxqaGJmAIMDKfK7RqiCSgRYYxs+4LzaF14s+SaAZeA+YfT7UCs0MILRpVIYQQAoAewFrx5/vAJOCuxqaGu4HXgS/yucJcDZMEtEi/YO4BLAdsAGyEHzdt3OZX1gLW6MCfmgOMbCOg5wH3mNmnwPS4y/4SmBpC0E5bCCFEtdMdWB04ETgGeBt4orGp4RmgAHwuMS0BLdIlmrsBq+CFDTsCe+DHS6suxZ/tBmy+0L/bIf6zGRgDfARcZ2ZPA5+FEJT/JYQQQvg7dIv4cxzwLnBPY1PDncCH+VxhqoZIAlqUTzjXAZvgeVj74akZvRPaZW8cfxqAD4D7zewO4L0QwhTdHSGqZh1aMW7YiZv2b9N5+9XpwGP4qRbA2BDCDI2uqBB6RiG9KXAk8EpjU8Nzcc6/l88VNNerRUCb2XrA8p34T0aHEL7MyMugJ57+UOpxnxRC+LCLn5EonH8BHBCFc12ZhqxX/CwbAUcAr5jZlcATIYRpenw7dD+7ARviuXRdZQ7wbghhdoWOUT/gawlcakYcx5YSfY8+wPoJDduHIYRJJfgOa+EnXt8D1ozr5aZtNtcrduHPzgP+N/6zBXjRzMYCDwBvhhA+00qRmWe1Z1zPxmTlvZ8gdSzIl94X+DUwuLGp4Xng9nyu8LGGKOMC2sxq4o3eGFgpLo57tfmVLdpEHJZEK/CqmU1e6N8/ALyPpwOMwHNt56WgSG1d4D6gX4mvczOeJ9XZ+7Jh3MEeFB/CuhQtDCsD+wA7A8+Z2eXAkyGE6XqM22Vl4BZgvaX4G7Pj5mVJnqSFEEI+g2O0D3BZAtcZFoVhqSJCDcAdCY3Z8XFeFeN9sBqwNe44sB2wdtw81xd5/ZjPAfHdcRQwysxejuM2HJisuotUi+ff4ikLb5rZ4PmbIGBaCEGDtIBu8bk6AC8+/EVjU8NLwF1xHZqUzxXmaZgyIKDjItkrCsjt403dOgrJ2qUUarst4t/tFyMNc+LDNQt41MzeAl4BJoQQZpVhvGvxIrw+Jb5Oz07enz7xxf4HPNqb5g6VvaPg2RXPkb4CGKUc6Xbn3LJFmHP7dHBDm9WXTZ+E5m5NidfzPgmO2dK8E2rxgqgfAsfGgEpdicenLTXxufgW8E3iCRdwpZk9DEyUK1CqxHMNXodzbNQNu8Zgysl405ErzOxZvPBchXRfpTsemNwc+DlefDiksanhXmAoMCGfK2iup01Am1l9nOy74JHNTfHIZqmpiz/dYkSD+BlagNFAwcweAwYD48skptOyKG2BR5MOZ+mO+ZOmJ3AC8IP40rsiboz0VAuR3jWnFo8w/wBPE9s8BRv2migydgC2iUL6WjN7ML4fFJEu/5zZGbgYP7VuGxzoDXwnvt9HAXfHepmPlOKxyHleH5+5zeM7/xXgzsamhmfxfOnPNUxlFtCxAG0j4OC4UK5PMgVoS6I2fq75n20sMMjMXgAeDCFMqKJFqQewLXBpFNFZZU38WG834CTgrQSuOR4I/LeTiBBi8Zv1r+Gnjz8FNmMpo9glohueCrM1HpVuNLOXKzX/PyPzpj9wBfD1dn61J7BVfJcdCQw1s+uBZyWklzjXG4BPgJGNTQ0P4Z0Px+RzhckaooQFtJmtjB+r/DgK57qUfvfu8fOtHxf0l83sGeAe4I1KPgYys2Xwoppf4seoWWcZYHfgBjO7FLg1hNBcqouFED42s/ckoIXo0HrTE7fAzEfh3D0DH7sHHpG+HbjYzC6s1pPKMrMjcOUSxHNbalnQ0GtP4CkzuxovFh2r4Vwsq8efXYHPgOGNTQ3X4vnSY9T5sMQC2sx648WAJ0QxkyWLvJ74EVB/PEfovvjQvVFpx3cx8nwKcAaej10p1OAR9X8Cy5vZFaUU0UKIDm/WG/HToX4Z/Aqr4ydc3c3smhCCnAySmzvbA1d3QjwvTF88x35P4AMzuxkYGEL4SKPb7gZkNbzmpT8emX6+sanhLuD1fK6gTUgxBXQ8YlkBOBs/8uqV8cmzNp4TfABwl5ldBYzMepFavE8GDMAjz70rdE6vAJwD1MV7N1150UKUZb3ZKr4X9sz4e2E54PfA3mZ2DPCW8qJLPn92AK7FbUyXlj74aeFfgSPM7EbgVjy/Xak5i2dZ3JlrQ+AQ4MPGpoahwPV458MZ1V58WL+Uk7wWj9z+GS/W61Yh4zK/QvxE4Ce4O8WVGV6MwI9Or8WjtJVOnzgn98Cj7aO1FgqR2HrTE7fOOiOK6Ep5V+4EXISnJyo/tHTzZ0Xg1CKJ54Xv4deBc3ELw2FmdhnwXAhBlm7tswwL6sf2x+2B72psaigAbwBfVKOYrl2KSb4ccDRweVxYulXoGPVmQQerrLIpcE2ViOf59AJyuEPH+gghkhA/PfATrhsqSDy3ZUfgpLhJEMWfP/2Av+BWtKVk/bgRuoxknMEqTRNtB5yH14w1AWc0NjXs1NjUsEw1DUR9Fyd5L+B3eCFajwofoyHAoxlekL4BXMUCO79qYzfgdDM7QTnRQiQins+kk170GaIncBowz8wuUGFhUefPClE8/4JkAnItuJXtJxr9LrNi3FTuiBcfPtDY1PAC8AzwYT5XqOj+DPVdmOQ9o3g+uQrE82fAv0rRsjZB8XwlXk1erdTiHc5GmNllEtFClGStWQ2vgTkNz52sZHoBvwJeAJ7S3S/K/FkuiucjSO40+yngL3onFI1VcAvBQ+OmZHBjU8OjwEvA6Ep08qjv5CTvzYLIc6WH6lvx9q73Z1E0mtlmbcRzTYnGp23eWJJdxDpLX+AsoMbMLtWCKUTRhA94XulleCpf9yr56isAF5jZUSGEYZoJSzWH+rAgLzkJ8dwKPA0MCKowLwU9gfXiz4F4IPLO6OQxAphWKfnS9Z2Y5LW4g8MpVSCeAT4ErshoccF8C5r1iyRqZwGzcU/IKfHfTQLuAmbG+XAgC2yq+uKNCHqQnqPc5ePG73kzG6oqeiGKIp43wesrSrVRTys1cY072cyOCyHM0Izo0hxaAXfHOJLkIs/v4C3Bx+gOJCKm14m68TjgTeDxxqaGp6KemJrPFTJbwFnfwUlei+eSHlcl4nkO7rwxIqOff7Ui/I0WYBzwLPAw3uFvdAhh2mJ+/9E286U3bn2zCbAv7tSyFuVv2fs1vKPVwcC7WtuEWCo2Aa7DO5lVK/sCu5nZIyGEFk2JTonnuqgpkhTPn0bB/r6Cz4lSi6c+bRd/TgFG4pHpu4GP8rnCtIoU0FGQnYtbmFQDQ4GHqzhKORaPLt+MN5PpVCFACGE6MBwYbmZ34h6cP8W9tdemvJGqbwLHmtmZIYSZWteE6BIbR+HTUOXjsBLudf16DDiIjovn7+Gn2kmK59PwZipp7TT8JZ4aWVfhU6BXfBdvhbu5vdTY1PAM3kb8g3yukIl3c30HJnotbge2dRk/5zg8AtoRN4ydotCvA9al8xHzT4E/AhOrcF37BLgTt6B6sxi5wlF8DzOzN4GBuPXNjpT3JOMY4Ak8si6E6DwnUPnFgh1lS2C/2P1UUeiOaYp9gYvx4/0kmIB3xEyzeAa4JYro7wJb4KemlUwt3uDN8K6RnwLPRCePu/O5wvhMC2g8engm5fF5/hj4D3ATEIAvlnTsErvPLRM/7/Z4xPOHcTIuqZXs7Cgen6vC6PMIvAPjkFJ0ZwohNJvZUOAgvK1vYxlFdG88Cv2McheF6BLLlejvzsCPdufnRQ4Hnl/odzYFdm/zLH+d8qaHdcOj8XcD4zU12n0/A+xNsv7LrfiJatrFM/lcYRxwWWNTw7+jdtkZ+EHcpK1W4dOjW5wTh+E1VT+PQvpevI3451kU0MfFG5kks/Hcun8B73Rm0scc3fm5NPfGlrLX4Pl6x+MG7f0Ws+C+BlxSZd6es+L4zB/rkm0c4uZnopmdF+/RsfgpQTlSOr4DnGJmf1VBoRCJ0xrX+cl4YdFw/Ph2elyH56/5cxc+CTOzeha4fSyHHwUfBHwriun6MnyfrYD9zewqrSeLFc+1UTxfnaB4bokC7I9pF88LCempwIjGpoa38KDeBnF+HxTn+4pUbvM6cAOCbeN3PjqOxRD8hPx1YHIabPHqlzDh+5F8A47ZcXf6+5hLu7SirRV3ihhmZkfjRWQD8LSU1doI6anxwf6oysTzxcDZSUZiQwgzzOx84Ek8z/obZXpAf4pbFb6j15sQia3vE/D0qYH4ke1IoLWjRV1RCM0XQzPM7GHgEWBVvLvcUfjJaZIb81rgEOB6QDaZ/60l6vC0jSQjz/PwTnkn4FZqmSOKxFnAm41NDW/G9+UmuOvNvlGfrUTl9uSoxZ08tok/R+PN7QbG6PQY3MkjfQIaPzbYJMHP0xwF7h+KIZ4XsfC2AEPN7DU86vpzvK/76sSiuSqqzG0GLk1aPLe5F8RNzeXA3/Cj2KTZADjYzP6SUbtCIbIknF+LAvMp3AWhKF3K4lrSiqdPXGJmg3DLykPxYqWk2CIKmud1u/+LDYHzSbZt9kPAySGEzyphAKNIbMHTLUc0NjXchHst74XXfu0CrExlR6a74Ra9/VlQG3d/LEAcm88VvkiTgP5Rwjubf+NHLSW1M4kL98tm9jpwI27Rd38pcn9T/DK7rFzieSGuxn2jf0vyntH1uKXdf1AUWohS8XZcb+4OIXycwOZ8hJmdFF+wp5NcrUVf/FRLAroNZrYGbgu7foKX/RC4OIn5VkZB3Yyf3oxsbGq4Di/E2xPYFY/Wrk35rWNLyVrxZy88c2BYY1PD9cCrUUyXPMWjfgmTfkeSOwYbD1wZQkhsBxEF80vxp5p4BTgvhPBluT9ICGG2mf0D7+z1qzJ8hI2AH5vZeVnKkesEzXieqRDlmHu34vUVrySZGxxCmGVmf8fdmH6TkIiuAXYws7VCCLK0cx2xKnABXhSWVG76OPwEomrarOdzhRl4NPatxqaGG4A1WVCAuDnJ17ElSW38fmvjxcXjgKcbmxruA0bkc4WSpeW2N6H7kayFyj34EZ8oLW8Cp5KinLCYE30lfiyTdM59HfAz4DZgdAXe74m4Zd+2mvoiQWbhp0t/CCFMKdO6Mj0WLLeSnOvP2nhOatULaDNbGbgEP8lOytf4Y9ws4MFqtRTM5wpf4lHpkXidwTq4X/uPcDviValcn+k+eE3VJsD/AGNi8eFNeKC0uZiR6fYEdDeSLcIIVZRCUS6m4dGgISmsFH8H+AdwLcnnQ28E7GJm71VaBX0IocXMVNQkkuT9KFgfK/cpVxTRl+LRuN0SeKcthxd3Da9y8bxKfNccQHJpBBPwIrOH5ITy/znT0/Go9Nt4AeKGuLPFj+M/+1GZBYg1uE/95sBm+AnI68AdjU0NL+HR+hn5XGGpNlntCeh9o5pPgi/joitKRytwO3BjGheXEAJm9hjwOG41WJvww3YQbpEzVVNFiC4zBhgQQhiUorXlMzM7HfdpXrPEl6sH1qhy8bwG8M+ExfNcPNr6iMTzIsV0KzCHBWkeA/HAUX88b3pHPDLdvULFdF+8yHIXYBJ+En9/Y1PDc7jH9OyuPuyLox/J5SzNjTslUdrd+bVp9rgOIUw2s7Nw95d1E778Lvjx1jOaKkJ0iWbgHNKZezo8PtuH6jaVVDzX442ykhTPc3AzgHPkptRhQT0PL+59O7p5fA3YB7fH649b/Faqm0c/vNByV7z78j3REu854JN8rtBhd6D6lHyhFfBQu1orl4ZW3Cd1aAY+6wg8H/5kks3TWgbYJ3Yn1IwRovPi+Urg3pSecDWb2eN4Hugyul0lE88H4/awSa3d88Xzb0MIk3QXuiSmZwPvAu9GN4+18XSnvfCmLUZ5mp0lwep4zvzPgbF4G/EncKOFsKQUj/oUfZGVzKxbsbxBxVeYgjucpD4XNoQw18xuxHOWvpbw5XfF86amacoI0SnuxC1I0+z48loU+hLQxRfPdXga3N/xVIAkmBvF8xkhhIm6C0UR09NZYI33bzwdaee48dyCZH28k6QXsHH8ORSPTN/R2NRwJzAynyvMTLuA/i5eRDZe07joPAi8nKHP+ybwYhkE9Bb4SciLmjKiBGwU51ehwr7X28CFKRfPAO/hHrG7aioWXTwfAlyIH48nxTu4HavEc2nE9DTgncamhndZ4OaxDR7c2gZYhcpM81gWL7Y8De9iOTxGpZ8E3qBN8WGaBPT6wOFmdkGF+vGWi7l4o5DMRPajc8StwPdJtpNYz7g4SECLUrA8sGKFfadm4KosbNBDCFPNTMf8xRfPhwIX4amYSYrno6lM69G0CelWYCYLrPFuwSO12+KdnLfDOyBW2slOXVyzd8VrpE7DizBva2xquAf4rD0BPQNvG5lUIUDPqPYHmdnLykMtGq8CQzM4nk/itjMNCV6z1t8JSiUSooO8Bdyu9boqxXM9Hnm+IGHxPBp3ehmsu5C4mAavqZqf5vEfvJ34rnjx4a54AWKluXnMt8XbDo++HwcMb09AP4gnV/dN8EOuDVwBHEmV+2gWkdtwB46sMR1vANKQ8HW3iwvCKE0dIdplLnBDJbdLFu2yKfAnPPqYFO9E8fKchj8VgnpOfFeOauPmsVcU0zvgOdP1Ffa1a4ENgA3aiy5/CZTDEmZr4Coz21LTc6kZDzyfxY5MsZL/SfwkJEmWwytzhRDtMwr3lhdVhpmtC/yVZFtEz8bzrJ+W13MqxfSsfK7wTj5XuAwYAHwHOAZ31RpTid+5vZ3BdGAyyRYFgIfKtwGuMbOjgVd1PNhlPgeyPHjD40t66wSv2Qf4HvC0po8Q7XINKvpeFP3MrGcIYWYFCmdwW7PLgW+TXIrnbLwt+C3V2qI7Y2J6On5a8E5jU8NtuJvHjixoJ74GFdBOvL3JPwZ4vkyfqwZvM3ktsI2Z1WhKdonH4iYoq8zCK+eTnnu9zKxW00eIxTIFeFGRwEWyE6XveFhO8XwtsHeC4nkmHnk+O4SgTrEZFNP5XOFd4Ca8SH8v4Kd4Z9Bx8T1fWQI6Lox3xZ1fuUT01niU41Az66mp2Cnm+W1Mv/dzO3NwFvBQGS69SyW+AIUoIq/jlk5i0e/VSgz6WHwf75Hg95vVRjzLnz/bQro1nyvMiWke/2kjpo8BbsVPyzMlppeU3P0a8AHuX1outgSuBtaJFnezNRU7xKeks6VuZ3kPmAislOA1+wI9NIWEWCz3kuHIkeikcjZbGbg0iuckeQb4SyWmw0hQF1pZUID4H7wAcXf8BGd3MuDm0a6ADiGMNbOhZRbQ4BZ3ZwBrmdklIYS3Nf2WyESgEjxPRwKfJSygu+H+j0KIRTNZuahVI56740fuSUaewU85fo/XY4nKFtPNuD3h6NgBcS28nfjuwPZ4E5fU5Ux3xF7ketwsu3eZP+uyeKh/UzM7JoQwUtOuXZ6mMgp85sTNQJKsjB8tvaJpJISoYvHcDW9Y8nuSbZTxerzuUJkIVJ2Yngm8C7zb2NQwEI9E7wgcgGckWFo+a0eKAAYDj+Dm2Wn4vDsDd5nZMXFnLBbN7BDCvAr4HlPi/Et6nimFQwhRzeK5B94L4s8k1yilFW/+dSTwkopUq15MT8/nCu8BNwMH484vh+IFiB/gnVDLRkci0DPxFoabAN9IwZjWxM9xAbC6mV0fQvhAU+0rzKJCfBdDCK1mpq6AQqSHLwA1T6lsuuNevueQ7OnzZ8AvUeRZfFVIz9c1oxubGkbjDeLWw40mDsTTPFbB033TI6BDCJhZwE3Tzyc9TSZ6A38AdjKzk4F3QghzNdUAmIoXX4ius7GZ9Q4hKP9OiK8yDo8SisoVz8fhdUdJiucvgX8CL0s8iyWI6RYW5EzfHcX0jnjO9M64z3TJU4461GIxhDDPzG4DNo4PVVpaM9bghQ33Aueb2Z0hhMmaYhXHCDyVo2+C19wWLySUgBZCVFXwAPgdyUbzZuBBugvltCU6KajnsSBn+la8AHFP3M1jl/j/u5VNQEcRPdfMrgA2BH5Meioia+Nn+gewl5n9KoTwUZXPqalUlsXUW3hDmL5aLoQQoqQkXf8xU+JZFElMNwPvA+83NjXcgkei++ONf7YF1qeITjKdiiSHED42s/+NH+DHJNeJqCMsi1dprmVm5wEPVHEBwot4gr0QQgiRZi4H/hEbZwlRLDE9gwVpHrcDqwI74DnTW+HWeEulYTv9H4cQPgVOBO7A81DSRB2eB3M1cKSZ9avSuTOnQhw4hBBCVCatwHPAlWqUIkotpvO5whhgIHAQHpE+CS+ITk5ARxE9MV78diCNhXurAFcAF5rZOmZWpykkhBBCpIYhwIAQwjsaCpEQPXBf6d2An7GURbJdLgYMIUwws1PwKPRPSE9h4XzqcN/AzYAzzexhdc4SQgghUsHnwKcaBlFqGpsaukcteDiwD56+sdS5/kuV/xFCGA/8mvRGouvxXJdLgN+amdozCyGEEOWnP/BDM6vXUIgSCecVG5saDgP+hbu1nQRsRJEKZZd64oYQPjGzU/FK2gNIp1PCurhn9Bpmdn4IYUwFz5kWYIIeHSGEECmmD3Au3pTnUQ2HKJJoBndm2xZvBrQtJfIzL8rOL4Qw3sxOAB4DLgVWSuG4dgOOBnYxs2OBwRXq0jEz7rSEEEKINLMq0Ghmo1xKBI2I6Iporokab33gCLxQcBVKbMlYNBu66N94ZxSpLwJpdIGoAzYFrgX2MLMeFTiXWklnOo0QQohskKSl3B7ANXhxlxCdEc40NjWsgFvT3QM8DpwKrE0CfuZF9XEOIbSEEO6J6v+BlIpo8ByYfwNnmVkfTUMhhBDi/7kET61Iit2B/zGzbhp60QHhXN/Y1LA6bmBxB3AjsC+wJkVslLIkSpK8H0IYa2Yn4x3kjiadKR2rAacA9WZ2dghhmqalEEIIwWCgGTcJSOKkthY4A3fluFHDLxYjnOvwVvOHAPsD61Gi/OaOTtqSEEL4EDgLOA3vU55GeuBVmVeY2dYVMsd64NXNQgghRFeYB5wP3JzgNfsCJ5rZJhp+sZBw7t3Y1JDDu1beGzdbm5dTPEOJvZtDCHPM7CbgBeCqKOxqUnZvegCHApuY2QBgWMYLGbrFiVVJNOAFAUkyAY/AVAIT43fprqVYCNHB9/cXZnYpsB2wRUKX/SZwpZkdHUIYqbtQ1aK5BvgabkV8BN78JFUpt7UJPIRzgZF4yP33LGXrxBJRA2wNXAdsZ2Y1mr6pYu0y7DSfACZVyPg9EUW0EEJ0hteAE4HxCWqS/sBxZtZLw1+VwrmusalhfeDM+O66HdgvbeI5EQEdRTQhhI/wI6FTgVdxt4i0iegt8Wrg7SWiq555FWRzOC+Fz5sQIuXENfAl3J52doLv4gHAKWqyUlXCednGpoa9o3B+HPgTsAEpPjmtT/hhbAauNbMCnnv8MyBtu8zN8XSTg4C3Na2FEEJUsYiebWbX4nZzu5FMGmZP4FjgCTMbIn/oihXNtbihw5Z4msa3gcx0jK4t0wM5AnfAOBf4JIXjsjlwgpn1zui8XK5SPK7NbFlgm4Qv+wUwXMubEEJ4x2HgeGBUgpddC7gCz4sWlSee1wEagQeBgbiX8/JZ+g71ZXwgZ5rZ+cAzwJ/xQrE0heqPAqZHi7sZGZubOwDrAO9UwHPWi+SLIr/ELRiFEKKzdAdWrMDvNRK4CPg7ydWkbAn8zsx+GkKYqamVedHcPWq9HwO7Al/HjQ+yyMTacl49di98HvghcDEwPUWD0wM4Btgtg/nQ3cu5OSoy/Ui+gLAF5QwLIbrGSvhRdFZpjWvgwu9r8EL78xNcH2vwBhl/VFFhZkVzbWNTw+rRhu4mvGPgCXhgLGvieS6eNXEJ8N2yi6xYpPC5mZ2FR6P/jhtlp4HlgTweyR2doZtcS+VYlm2PR9OT5DngIy19Qoguir4sBzBGsZgUthBCs5ldD+wM7JnQ51kGLyp81sweCSG0aIplQzgDawA/wIORmwB1Gf06s4BhwNV4Ue3IfK7QkpqHPIQwHWgysynAZaQntL8RcJCZ/S2EMC8jN7svsA8Zz+ONkf9lE75sCzA2hDBLS6AQogqZBkxt5139oZn9E9gULwBLghWBC4HjzWyQRHSqhXMvvG6pP56qsXlGhXMr3s5+UPx5IJ8rfMXaNo275MFxx9KIV2WWW0R3wz2sbye9HRUXpp7KyMHrGedCkkzFixqEEEIsmkdxu7ELSS7IsSHw1/hO+Fi3IHXCeVU84Hgknnazcka/SjMwLs7xG4DX8rnC7MUJrVQRUzreN7Pf4b6Th+I5ZeVkY+BAMzs/NobJAlubWb8QQpabgSwHrJ7wNVtIZ7MfIYRIy3t6rpndDeyFRxmTijBuBZxtZr8JIUzRnUiNcN4f+Hnc5KyU0a8yBz+1vwF4BPg4nyu0exJdn+IHdJKZnY53ovkX3tKxXNQDB+D+0FkRpBvinXuyLKC3jjvaJHkNGKtlUQgh2n1HTzazvwI7Jvh+7haF2tNmdov8ocsmmuviZuZwvE5pCzxXPYtMAR4A7gUKwPh8rtChFKH6lD+gM82sCU/gvqbMInrjOFEeysikWBW3iRmTxRkd8583THiOtgAvKrIhhBAd4k3cUeE6kjuyrwfOAyarqDBR0VyDu2JtDfwEjzqvRDKNdYrNHNyWcWjUlkPzuUJzVyZi2ne5rcDjZjYAr4Asl4heFuhvZo9lJI1jGWAnM7sto/6Z3XFj9SSZDtytpVIIITr2fjazh4BbgBMT1BRr4ifT3wdG6E6UXDiviuc1H4UXCGbVu3kK8B5wI3BHPlcYv7Q7uazwBHAccClgZfoMe+JNX7KSB71bnPghgxP9GyTfQOV11L69qjCzbnhERQjRNRHdYmbnxHfNIQle+mvAmWZ2aghBRYXFF87dcaeVvYH9gG/h/TGyyOd4UeC1wNv5XKEo86U+Yw/pI3GXewmwbhk+xtpRvGelS906eH5aFgX0miTfQGUcoG5X1UX3+IwIIbr+fv7czC7Go5MbJnTZOvyUstnMTgwhfKk7URThvGK8hwcDP4q6J4tpGvPwgNh9wNPAi/lcoajN+uoz9pDOF9G/jjuJvgl/hNXjZMqKgO4G7Gtmd2fQ1/hHJHtMNB3P41MHwupiY5Jv1CNEJfISfkKcJ7lGXvV4Lu4TZjYwQ70a0iic+wDfw9M0tgRWwJuyZY3pUaPdjqdkfpDPFeaVavJlbac7z8wew1M6DtS0XyLbAqsAH2blA5vZ+sBOCe9638ILCDv6+w/g+Xd1mmLZxMzmPx8razSEWOp3c0vsUrgOflKcVABkeeAfwFgze1rOHJ0SzXV4tPkX+EncNmTTTWNeFM5PA1cALwDTSiWcMyug44M6zcyuwnOSV0j48j3MjAw9pBsC25vZhxn6zIcC6yV8zbviA9hR3kfR6qzTDThIwyBE0d7NU2OXwv5RjCUVBFkJ+B3uOvWB7kS7opmom7aPGupgPGUyi2kac/GiwH/j3s0jgJn5XCGRi9dneB48j3v2fTfh6/4EuD9D41QDHAY0kYH8XjPrC+yQ8Nz8HCjIDqnq2BY/qhRCFE9Ej409HO4i2TTLPYHLzezwEMIE3YlFiue+ePObY/BT3p4Z/SpTgeeAF4GB+VyhLHa99Rl+SGea2ZN4hWiSx+hZPO7dPT4sT2Tgs+4ZoxdJ8hDwspbX6sHMugNHk/wJlhDVwAt4WsUZCYq0GmAP4DAzuyyE0Kzb8P9pGhvhwca9gF1IvkC/GLQAH+HdAq8DnsrnCmXtGlyf8blRwHNflIfaPssBx5jZ4DR7Qsfo8y/i502KScD1IYQZmiZVxbbxhVKjoRCiuIQQZsVUjh2BfRK8dA/g98BnwMAqF869o3A+AG+3vn6GtVLA0zRuA8aWWzhXioAuB59k8DPX4Cbox5jZhWnMhY4FXXvE3XGSPBw3YmLpWd7MeocQpqf5Q5rZasBfUPGgEKVkGvBbYBOSdbpZETjJzF4BRlVTUWFsetIT2Bk4Nv5z+Yxqvdn4ScatwGDg3XyuMCdNH1ACuvPckdHP3Qs4Au/3nsYVZT3gVyQbfZ4AXKPoc9H4JrAB8FqKxfMyeEOmBhR9FqJkhBAwszfwVI4/RSGXFNvjVrdHAO9UgXCui5uUQ/CI/5YJv0uLRQvwMW6JeAvwJDA1nyuksmBfArrzzM3wjvbrwK/M7Iw0RQmjqDkaz9NOilbgQWBIFczZqbiN4Zolvs4yeLQplQLazGrwI+VjyG5HLSGyJKLnmtnlwFrAqSTnK1wT3yfHmNnvKzVI0tjUsCzen+InwJGUp8FcMZgBjMebnlyTzxUy0WujVo94p2jGjxWySjfcIm4vM0vFvY/FXL8ETkr40hOBazPYYKYrL7FPgWEJXKoncJSZrZhS8bwT3sV0VS1lQiS2/swBrgQewyOMSXIccHx8/itJOC/X2NSwD15M9whwTkbF8wxgEJ5usjfwm6yIZ+hABNrMlo87mwnAwyGEiSn6/DuRbFL828DrGX/2+uFHas1m9mgKrNt2xCu1eyV4zVbgUfyYSBSXBuA7eN5amlgez3v+hm6REImL6PfM7Exgc0p/Erbwpv44PBXg1QoQzuvgXXp3pDx9MIrFJ8A9eI7zI/lcYVIWv0T9EsRz77izORaYAzxuZucAw8vdMtPMeuL2bEkK6NlAJUQs1wPOBobGjVG57uEWwN9INjcOYBTwJ9kclYTewLFm9lII4b00fCAz6wX8MYp7IUR5eC1uYi8iuS6F4JHZq83sqBDC8AyK5u64m8bewOF4mly3DN7/uXg++tPADcDr+Vwhyyf6ixfQ8cjj23j0uVv8+T6enP8nM7s9hFDOXcMuZXghPkS2Uzja8k3gAjP7X2ByCCGxJP04t7YEriLZblXg0eergNFV9vL6OC5gSdQ99MdTOc4KIZTteYnzbHvgTNz/tLs0jBDlIeZD3xaF4P4Jrvs18X33azM7NoQwLQOiuQavKdkOr9mYH23OmnBuxYOvr+Itth8BPs/nChURvGrvZboxkOerR+u1wGp4HuHeZnYe8HLS0eiYY3kcyXY5+gJ4odyR9yJSh+dDbxA3RI8lkc4RTw6+i7dd/WYZvvcjwH+S3DCkhIeAX5PMkV8tcCIw0cz+VQ4RHXPrdwAuQ2kbQqSFz4ET8Khwkl1Aa4ADgXFmdnZa+yE0NjXU4kWB++MttrcA+pA9x6AW3Iv7IdyP+1VgclrdNIoqoM2sDvgZi09KrwN+gEcP/25m9wJjExJgK+HHQPsmPFajgFcqbDGriyLj8ngf/1PKU4XotnEKHhEsRwvRj4G/hxA+ofqYCIwluZy5ZXHrqtYoohOJOEQ/8dWA44Gj4stICJECorXd+Lg2XIS7cyRFD9zW7umkAkZdYC88rXELstn0ZDaeqvMscCcwLG3ezSUX0CzItVnSce9awPnxd88ysydLaY9mZv2ieP4FyR5lzMH9n7+o0HlgeGFhfzO7CigUc4ceo4GbAf8TRU05xPMXwGnAM1X64hpnZi/iRTxJRTN6AWfFOXBTqQuQzWxlPM3siLi5l1WdEOlbi1rM7D68FuevCb/LV47C/TgzeyqFJ5G7AFtn8LZOBN4HbgbuzOcK46thLtcv4iW0Fm4r1tFK2W7xhl8PPBYF2IvFtgeLbZ7/FsV60nlAbwN3VVD6xqLojh8Z7QU8ZGY3AG+HEMYvxT2rx08x9sWbpKxNeY6i5uIVv/dX+D1cEv/G/UKTrNxeDi9E3sPMzgJei7ZWxVoX5s+x/sDP8RbdPRGlZDU8LeYZDYXoooieZ2Y34U5aP0j48hvFNen7eEqJ6DqT8DSN64ERwIRKS9PosICOL6Of4cWDnWXFKMC+DQw2s0HA7bg5dmtXmo/E49hewG74kex3SL75yxy8I84HVTInVopzYH/g3Ri1vCfex5Hxd/7rfsZ7NV8cb4B77R4M5IBVyixqngJOCyFMrfLF7iXchnHXhK/bC8973wp4wMyuxp18WrqwHtTEv7cJsD5wAF5oU+45Vk30i5sWCWixNCL6MzO7CM+FTtrDeDvgL2b2mywUFaaQt6NoLgCv5HOFquzmW7/Qy2kP4DcsXe5NP2A/POo4APgIuMfMRuO5MW1TPGYvHBGM+dc9gDXwY9jD8ejSsmUao7eA21KaL1UqanBruW2Ab8X7OAV4A6+qfcnMBi/032wdNzpEcbMyHtUud8OWD4C/hRA+05rHHNyfeecy3Jda/FTraNzH9D4zuxsYhx/9LY6NWdD4ZP4c643nCPZAzhpCZJlngJPx07E+CWufI4HPY6fCFt2KdmnF0yBfBR7Ag6Of5HOFqh63ttHcNXFnhBWK+Lc3jT9748foI4H5ubUtwP1mNm6h/26tKMBXw3u7l5PpeLe6rEWfR+MVsNuz9IUI8+10Vos/xPuZBT4AjgohDNL6ByGE1ph7eDTlcUCZL6RXiZuyAfjJxth2fn9d/FRECFGZa9KTuC/wiQlv7LvhdTlDzOzBKk/vWxxz8DSXQbj964tZ924uuoCORV4/xyO9pbzWZgv9u+1TvuN6CLg6g/f1WTzH62L8JKCuCuf2GDzt50k95l/hM+BavJgwDZ6ibTdm5WAafsq0naaGEGUR0TPM7GK8MdrmCV9+LeA83GVrlO7GV4TzO/iJ5X3Ae/lcYaaG5avUthGyp1D+4/Y0MRQ4p9jFkAkuSgEvBn0Yj/ZXE+/HaMZjVej3vKR50QLcj6dTVTszcFef6zQUQpR9zT4etxpNmg2AP5qZLC89TeMevOj/B8C5+VzhTYnnxQjo6LpxDl4EKJwP8fblb2RcLAXctP5RPKJeDYwBTgIeUV7bYvkYb209sYrHYCZuoXURldNdVIisvqtagSF4mkDSQat64MfAYbEGqypvAR5YORQ4PJ8r/CufK4yu9hznJQpoPAeogex1uikV04ALgde74hySwoXpQ7wV6GNVIKLHxI2PxHP7c6IFeBrPO2yuwiGYDvwZ+EdaO5IJUYXr0hzgAtzdIel3VT3QCBxURSJ6Lh75/xPucHZIPld4KJ8rfKnZ2HEBPQUvttJRtx9f/AG4LIQwt4K+11i8YKtS0znm4YWTRwKPSzx36GU1A8+RH15Fz34rbr90hsSzEKlcl6YBlwLDynD5leOauG2FD/M0vL7rINx2+Ox8rvBOtVrRLZWADiFcBhwC3Eb1HmW2xgf2V8ClIYSKGocQAiGEscBxQFMUnJW0i74F95t+SjnPnZoXY4HTgclV8oy/DBwcQrgkq7UNQlTBujQCuAQP7iXNing+9DoVNqzzgPfw6P5hwE/yucLd+VzhfaVpdJ36OGGHmdkAvHDuGGDDKhuHAjAgPriVvDB9aGa/xI/tv4N3icsyY4FrgCvk89xlXsTbuP8Wb1BSqQyLz/jruuUiATYzs+VCCDoO7xq34v7v55Cs13sNbtPaaGanhBCynuI2Hc8wuA8YCLydzxVk11ckatuIq2nAP3E7uxvxFo2VzizgX7hX8IhquOHR03oA8Osy7fCLtZt+A3eO+YvE81LNh1lRQJ/HAo/2SnvGn4tzXuJZJMWWeDMq0bV1qTnqkOfKpIsOAo4ws24ZHcJZeAfeAXFD8MfopiHxXETqF5q0LcALZvYq7hX7v7iVSSXa270JnAvcF0KYXmWL0xQzuw4/1j4Nb4mcFabgBWB3AuNkfl+U+TDTzP6OR19OxxvnVAKz8YLgfwATK6EoWIgqWpc+NbM/4TnJfRK+fD+8HmpUFKJZYTzeJXAQ8DwwKZ8raDIlIaDbvlCB58zsLbzw7Hi8CUq3CvjOH+JHGdcD71ZrzmwIYW4U0c9GQbon0Jf0urF8EefiZcALEs5Fnw8zzOx8PLp/Ot4uO6u04seWVwMXVdsGWYgK4gXg1LgJTiLlsBn4FK8JawJeycAYNePF4INxT/uR+VxhrqZOmQR0m5fqJOAaM7sH+BFwBLAV2YtQzYsv1OeBK0MIL+jWQxSho8zsMNzK8M94R7YeKRJCE+LCcD9wS7Q6EqUV0XPxgtqVyJ69ZTPwIHBuCOFl3VUhMr0mzTWzgXiXwoMoTVfdmXiH1iHAvcDQEMK7KR+aFjyo9Cbunf1APlf4QjMmRQJ6ISF9tZndD+yPt/zeG0/yT7twHoMf998MjJTF2SLvbzPwrJkdDBwIHI6fOHQv00eaE6MAT+CpRC9XmjNKiufCbDO7MG5aLgK2zshHn996diBwcazpEEJUxsb+dNwhY58i/ukJeIrGDfhJ7JgM2Ne2Ah/hRYG34tHmSZolKRbQbSbyp8BVZnYTsA3u5LA33gozTZ0MPwJG4B34HgVGVZivc6kWqo/N7GK8lWcubpT2SfDeTsb9nG/Hj88+kFdvWebBLDyF6wi8k+V+wCop/sifx03y+cD72iQLUXFr0lgzuwTYHFhzKTfar+OnVI8CozNShN4MvBo/9yPAa/lcoVkzI0MCeqEX7PNm9gJuPL5FFNH74NXH6yb8PeYC7wKfAA8Az8Td5BTd4k7fW3B7uMvjRml7YAf85GETYNkiXm5WvG8hLgzv47lcnyvHORVzYXi0Pbwe+EWcAyun6CNOxRsCXAsUFHUWoqJ5FG+CdDmdq9Foje+Zl+LfeAb4KCMb7Ul4MHBg1Daf5HMF9TrIsoBu84JtwY9BngSeNLOb4+5wc9zC5wA88b9vFF/gOZVdue48FnTRGwuMi///XtwgfFh8oU5XM42iCajpwCAzewa3+/tWvL8HACtEMb0pHXNpeQ/PMwO3oBuEd0QahuegTZdLQirnwEzcmecVvChvQNxUfYPS5CO2RwvuazoCP8J8AU/v0SmFEJW/Fs2LaaR7AT9dwnunJb5fBkXxOQT4LCMNlObh+c0PAFfE9W66Gp5UmIBexASfEXd675pZDZ53XBMF9Dfir/WNAqyzkcx78UJAcCeNcfF/z5VgLv3CFR/oQWYGnntVE+/hZp0Q0J/OX9wqIMI8Ic7JUojI11I4B2YDL0Uh3S8+w9/GLRDXx5uwlKLgcCZuR/cKnqf4SHyhzCxiBOkDPG0pCcaX+G8n9T0+yOhzO4RkCmM/obi+6oOjIEyC0fipbhrfRV+Y2bl4euF6ixCeU+Na8RTwOF5kNzNDwZm3cPvgwcCb+VxBRfMppkZDkBxmtll8sFcq8aWuCyEcqREXCczpNfBTiP1wm0vD07gWpjYK77qFxPHCleNz8MjylPj/nwZG4paTsqMTQmsOeBT66rjefBnXjAJ+MjUqBvOEKCn1GgIhRFcJIXwMfIxHezCzvizanac3XnDc1sv1PTzS0pYWYGxGjlqFEMmvOZjZIOBIvH/BcOBx1TwJCWghRJZfblNYfIv4YRohIUQR1pkWPL95kEZDlItaDYEQQgghhBAS0EIIIYQQQkhACyGEEEIIIQEthBBCCCGEBLQQQgghhBAS0EIIIYQQQkhAawiEEEIIIYSQgBZCCCGEEEICWgghhBBCCAloIYQQQgghJKCFEEIIIYSQgBZCCCGEEEICWkMghBBCCCGEBLQQQgghhBAS0EIIIYQQQkhACyGEEEIIIQEthBBCCCGEBLQQQgghhBAS0BoCIYQQQgghJKCFEEIIIYSQgBZCCCGEEEICWgghhBBCCAloIYQQQgghJKCFEEIIIYSQgNYQCCGEEEIIIQEthBBCCCGEBLQQQgghhBAS0EIIIYQQQkhACyGEEEIIIQEthBBCCCGEBLSGQAghhBBCCAloIYQQQgghJKCFEEIIIYSQgBZCCCGEEEICWgghhBBCCAloIYQQQgghJKA1BEIIIYQQQkhACyGEEEIIIQEthBBCCCGEBLQQQgghhBAS0EIIIYQQQkhACyGEEEIIUfXUawgSZTIwEFi2xNd5XkMthBBCCFEa/g9+0bg4kijdDQAAAABJRU5ErkJggg==;" parent="1" vertex="1">
          <mxGeometry x="661.6600000000001" y="326" width="86.67" height="24" as="geometry" />
        </mxCell>
        <mxCell id="rIJFQiiRyaywPtjABDCr-2" value="Indexer" style="outlineConnect=0;dashed=0;verticalLabelPosition=top;verticalAlign=bottom;align=center;html=1;shape=mxgraph.aws3.global_secondary_index;fillColor=#74a0f6;gradientColor=none;labelPosition=center;" parent="1" vertex="1">
          <mxGeometry x="676.5" y="259" width="57" height="56" as="geometry" />
        </mxCell>
        <mxCell id="rIJFQiiRyaywPtjABDCr-18" style="edgeStyle=orthogonalEdgeStyle;rounded=0;orthogonalLoop=1;jettySize=auto;html=1;entryX=0;entryY=0.518;entryDx=0;entryDy=0;entryPerimeter=0;dashed=1;" parent="1" source="rIJFQiiRyaywPtjABDCr-8" target="rIJFQiiRyaywPtjABDCr-1" edge="1">
          <mxGeometry relative="1" as="geometry" />
        </mxCell>
        <mxCell id="rIJFQiiRyaywPtjABDCr-20" value="logs" style="edgeLabel;html=1;align=center;verticalAlign=middle;resizable=0;points=[];fontStyle=1" parent="rIJFQiiRyaywPtjABDCr-18" vertex="1" connectable="0">
          <mxGeometry x="0.4769" y="-2" relative="1" as="geometry">
            <mxPoint x="-36" y="-2" as="offset" />
          </mxGeometry>
        </mxCell>
        <mxCell id="rIJFQiiRyaywPtjABDCr-19" style="edgeStyle=orthogonalEdgeStyle;rounded=0;orthogonalLoop=1;jettySize=auto;html=1;exitX=0.953;exitY=0.493;exitDx=0;exitDy=0;exitPerimeter=0;dashed=1;" parent="1" source="rIJFQiiRyaywPtjABDCr-1" target="rIJFQiiRyaywPtjABDCr-2" edge="1">
          <mxGeometry relative="1" as="geometry" />
        </mxCell>
        <mxCell id="rIJFQiiRyaywPtjABDCr-21" value="logs" style="edgeLabel;html=1;align=center;verticalAlign=middle;resizable=0;points=[];fontStyle=1" parent="rIJFQiiRyaywPtjABDCr-19" vertex="1" connectable="0">
          <mxGeometry x="-0.1306" y="2" relative="1" as="geometry">
            <mxPoint as="offset" />
          </mxGeometry>
        </mxCell>
        <mxCell id="rIJFQiiRyaywPtjABDCr-28" style="edgeStyle=orthogonalEdgeStyle;rounded=0;orthogonalLoop=1;jettySize=auto;html=1;entryX=1;entryY=0.5;entryDx=0;entryDy=0;" parent="1" source="rIJFQiiRyaywPtjABDCr-25" target="rIJFQiiRyaywPtjABDCr-27" edge="1">
          <mxGeometry relative="1" as="geometry" />
        </mxCell>
        <mxCell id="rIJFQiiRyaywPtjABDCr-25" value="User" style="shape=umlActor;verticalLabelPosition=bottom;verticalAlign=top;html=1;outlineConnect=0;" parent="1" vertex="1">
          <mxGeometry x="896" y="255" width="30" height="60" as="geometry" />
        </mxCell>
        <mxCell id="rIJFQiiRyaywPtjABDCr-27" value="localhost://8000" style="rounded=0;whiteSpace=wrap;html=1;" parent="1" vertex="1">
          <mxGeometry x="760" y="275" width="100" height="20" as="geometry" />
        </mxCell>
      </root>
    </mxGraphModel>
  </diagram>
</mxfile>
